<svg width="260" height="78" fill="none" xmlns="http://www.w3.org/2000/svg"><g clip-path="url(#clip0_52_37)"><path d="M103.94 47.12c.916 0 1.669-.075 2.263-.23.593-.15 1.075-.362 1.435-.626.36-.263.608-.579.748-.941s.206-.767.206-1.214c0-.946-.445-1.737-1.328-2.363-.888-.626-2.408-1.304-4.572-2.028a33.27 33.27 0 01-2.824-1.149 10.28 10.28 0 01-2.533-1.633 7.78 7.78 0 01-1.828-2.386c-.472-.932-.706-2.071-.706-3.408 0-1.336.248-2.546.748-3.619a7.764 7.764 0 012.117-2.739c.917-.753 2.02-1.332 3.324-1.737 1.3-.404 2.768-.607 4.404-.607 1.94 0 3.614.207 5.025.626 1.412.419 2.576.88 3.493 1.38l-1.87 5.143a18.075 18.075 0 00-2.679-1.11c-.982-.32-2.169-.48-3.553-.48-1.552 0-2.665.216-3.342.649-.678.433-1.02 1.097-1.02 1.986 0 .532.127.974.374 1.337.248.362.603.692 1.062.983.458.292.981.56 1.58.796.593.235 1.253.48 1.972.734 1.496.56 2.796 1.11 3.904 1.652 1.108.546 2.029 1.177 2.763 1.901a6.906 6.906 0 011.641 2.551c.36.974.542 2.16.542 3.554 0 2.706-.944 4.805-2.824 6.297-1.884 1.492-4.721 2.24-8.517 2.24-1.276 0-2.426-.075-3.45-.23a22.915 22.915 0 01-2.721-.565 15.31 15.31 0 01-3.469-1.422l1.828-5.186c.86.475 1.917.899 3.179 1.275 1.262.377 2.805.565 4.633.565l-.005.005zm34.57 4.227c-1.051.306-2.412.593-4.071.857a33.443 33.443 0 01-5.236.395c-1.828 0-3.399-.25-4.633-.753s-2.211-1.205-2.931-2.113c-.72-.904-1.234-1.986-1.538-3.243-.304-1.257-.458-2.636-.458-4.142V30.093h6.189v11.502c0 2.01.262 3.46.79 4.35.524.893 1.51 1.336 2.95 1.336.444 0 .916-.019 1.412-.061.5-.043.94-.09 1.328-.146V30.088h6.189v21.25l.009.01zm18.985-15.729a40.555 40.555 0 00-1.954-.437c-.748-.15-1.552-.23-2.408-.23a11.9 11.9 0 00-1.393.103c-.542.07-.949.145-1.225.23V52.1h-6.189V31.27c1.108-.391 2.417-.758 3.927-1.111 1.51-.348 3.193-.522 5.049-.522.332 0 .734.018 1.206.06a24.1 24.1 0 011.412.17c.472.07.939.155 1.411.25.472.098.874.216 1.206.357l-1.037 5.144h-.005zm13.837-15.978c1.164 0 2.23.118 3.198.358.968.235 1.716.465 2.244.691l-1.206 4.98a8.22 8.22 0 00-1.809-.565 9.453 9.453 0 00-1.809-.188c-.748 0-1.38.103-1.889.315-.514.207-.916.494-1.206.857-.29.362-.5.795-.622 1.299a6.7 6.7 0 00-.187 1.633v1.087h7.643v5.187h-7.643V52.11h-6.189V28.935c0-2.843.794-5.102 2.388-6.777 1.595-1.676 3.955-2.509 7.083-2.509l.004-.01zm27.713 26.855V52.1h-19.237V23.113h6.484v23.382h12.758-.005zm10.514-22.755c0 1.143-.37 2.042-1.099 2.696a3.776 3.776 0 01-2.595.984c-.995 0-1.865-.33-2.594-.984-.734-.654-1.103-1.553-1.103-2.697 0-1.143.364-2.042 1.103-2.697a3.775 3.775 0 012.594-.983c.996 0 1.861.33 2.595.983.734.655 1.099 1.554 1.099 2.697zm-.585 28.36h-6.189V30.098h6.189V52.1zm5.82-21.25c1.052-.305 2.408-.593 4.072-.856a33.434 33.434 0 015.236-.395c1.828 0 3.399.244 4.633.734s2.211 1.177 2.931 2.07c.72.895 1.234 1.954 1.538 3.182.304 1.229.458 2.593.458 4.1V52.11h-6.19V40.438c0-2.01-.261-3.431-.79-4.27-.528-.837-1.51-1.256-2.949-1.256-.445 0-.917.019-1.412.061-.5.043-.945.09-1.328.146v16.986h-6.189v-21.25l-.01-.004zM245.457 38a433.81 433.81 0 001.888-2.08c.65-.72 1.281-1.436 1.889-2.142.608-.706 1.183-1.379 1.72-2.019.538-.635 1.005-1.19 1.389-1.661h7.362a277.875 277.875 0 01-4.3 4.861 118.22 118.22 0 01-4.591 4.777c.832.754 1.688 1.657 2.576 2.702a68.213 68.213 0 012.576 3.247 47.438 47.438 0 012.286 3.351 41.556 41.556 0 011.743 3.06h-7.119a136.19 136.19 0 00-1.515-2.41 59.011 59.011 0 00-1.805-2.64 35.092 35.092 0 00-2.01-2.537c-.706-.81-1.402-1.497-2.094-2.057v9.644h-6.19V20.642l6.19-1.002V38h.005zM139.436 67.048l-8.363-4.664v4.528h-.898v-5.94l8.373 4.66v-4.519h.888v5.94-.005zm4.783-.141v-5.799h8.283v.824h-7.386v1.643h7.386v.804h-7.386v1.709h7.386v.824h-8.283v-.005zm16.805 0v-4.98h-4.095v-.823h9.065v.823h-4.081v4.98h-.889zm12.337.127l-3.669-5.92h.995l2.726 4.395 3.001-4.537 3.011 4.537 2.706-4.396h1.005l-3.669 5.92-3.053-4.597-3.053 4.598zm16.624-.127c-1.201 0-2.09-.24-2.665-.72-.575-.48-.86-1.191-.86-2.132v-.066c0-1.92 1.174-2.885 3.525-2.885h2.847c2.351 0 3.525.96 3.525 2.885v.066c0 .941-.285 1.652-.86 2.132-.575.48-1.464.72-2.665.72h-2.847zm-.019-.82h2.889c.907 0 1.571-.164 1.987-.493.416-.33.627-.843.627-1.544v-.066c0-.701-.211-1.219-.627-1.553-.416-.334-1.08-.499-1.987-.499h-2.889c-.907 0-1.57.165-1.986.499-.417.33-.627.852-.627 1.558v.066c0 .701.21 1.214.627 1.543.416.33 1.079.495 1.986.495v-.005zm20.051-2.851c0 1.035-.51 1.666-1.524 1.887l1.257 1.784h-1.042l-1.141-1.685h-5.792v1.685h-.898v-5.799h6.536c1.739 0 2.613.697 2.613 2.085v.043h-.009zm-.888-.01v-.042c0-.433-.136-.748-.407-.95-.271-.203-.711-.307-1.314-.307h-5.638v2.48h5.638c.627 0 1.071-.089 1.332-.272.262-.184.393-.485.393-.909h-.004zm12.949.382c.743.056 1.271.258 1.585.607.308.348.462.908.462 1.675v1.017h-.897V65.87c0-.597-.126-.993-.384-1.195-.257-.198-.705-.301-1.355-.301h-6.063v2.532h-.898v-5.799h.898v2.471h5.656l1.683-2.47h1.052l-1.739 2.498z" fill="#fff"/><path d="M24.735 43.003l-9.35-1.817a.768.768 0 01-.613-.64c-.565-3.713-.518-7.37.155-10.867.668-3.502 1.968-6.914 3.866-10.152a.765.765 0 01.809-.367l9.35 1.812c.457.08.752.607.57 1.045a55.83 55.83 0 00-2.894 9.926 55.697 55.697 0 00-.973 10.302c.014.47-.458.852-.911.758h-.01zm1.014 2.753a.774.774 0 00-.622-.706l-8.718-1.69c-.533-.122-1.052.438-.88.965 2.146 7.695 7.018 14.28 13.717 18.548.65.448 1.5-.395 1.06-1.058-2.552-4.166-4.127-9.72-4.552-16.059h-.005zm-4.4-28.224l8.715 1.69a.761.761 0 00.837-.424C33.63 13.07 37.14 8.5 41.054 5.587c.655-.457.178-1.54-.593-1.38-7.77 1.573-14.745 5.752-19.574 12.1-.346.43-.08 1.14.463 1.23v-.005zm21.215 31.123a.787.787 0 00-.49-.325l-13.445-2.602c-.482-.099-.968.33-.907.828.879 10.176 4.974 17.913 10.686 20.186a.777.777 0 001.038-.574l3.235-16.934a.746.746 0 00-.117-.579zm4.086-24.252c-3.567-.673-14.258-2.763-14.258-2.763a.77.77 0 00-.85.466 53.368 53.368 0 00-3.984 20.817.76.76 0 00.622.748l14.258 2.763a.77.77 0 00.898-.612s2.93-15.362 3.922-20.515c.121-.64-.187-.829-.608-.904zm-13.622-5.61c-.239.433.051 1.026.537 1.106l13.44 2.602a.766.766 0 00.898-.611l3.24-16.934c.098-.48-.314-.95-.79-.923-6.13 0-12.772 5.658-17.325 14.755v.005zm26.422 33.91c.233-.443-.056-1.022-.538-1.106l-13.445-2.603a.77.77 0 00-.898.617L41.33 66.545c-.107.475.309.95.79.917 6.129 0 12.772-5.652 17.325-14.75l.005-.01zM50.409 23.16l13.44 2.603c.481.113.968-.334.911-.824-.879-10.18-4.978-17.917-10.69-20.185-.426-.189-.955.108-1.034.569l-3.24 16.934a.77.77 0 00.608.903h.005zm-4.577 23.928l14.254 2.763a.77.77 0 00.855-.466 53.035 53.035 0 003.03-10.209 53.15 53.15 0 00.948-10.608.765.765 0 00-.621-.753l-14.254-2.763a.765.765 0 00-.897.612l-3.923 20.511a.771.771 0 00.608.904v.009zm25.295 6.876l-8.718-1.69a.758.758 0 00-.837.424c-2.73 5.728-6.24 10.298-10.154 13.206-.65.457-.172 1.558.599 1.38 7.793-1.455 14.744-5.752 19.569-12.096.35-.433.084-1.144-.463-1.229l.004.005zM66.73 25.74a.76.76 0 00.621.7l8.714 1.69c.538.128 1.052-.432.884-.964-2.146-7.695-7.017-14.28-13.716-18.544-.655-.447-1.5.396-1.062 1.054 2.558 4.166 4.133 9.72 4.558 16.064zm10.98 5.205a.768.768 0 00-.612-.64l-9.35-1.812c-.457-.104-.92.287-.916.758a55.646 55.646 0 01-.972 10.297 55.992 55.992 0 01-2.894 9.93c-.182.43.108.966.566 1.041l9.354 1.812a.762.762 0 00.804-.362c1.898-3.238 3.198-6.655 3.866-10.152.669-3.497.72-7.154.155-10.867v-.005z" fill="url(#paint0_linear_52_37)"/><path d="M75.372 60.017c-.234-.81-.63-1.29-1.14-1.826.2 1.957-3.806 11.295-10.187 11.022-6.194-.263-16.834-2.66-23.126-6.918-9.775-6.618-19.588-9.672-25.674-4.74-6.073 4.923-2.847 14.449-1.417 13.531 33.743 10.98 51.568 3.798 54.63 2.32 0 0 8.812-2.39 6.914-13.39z" fill="url(#paint1_linear_52_37)"/><path d="M72.142 68.912c-4.567 3.647-13.744 2.419-19.34.372-10.738-3.417-27.605-18.963-37.791-10.129.005 0 .014 0 .023-.004-5.086 3.953-2.267 12.495.645 13.366-2.524 1.294-8.527-3.982-7.989-7.554-1.388 4.9-4.885-5.803 1.015-9.822.897-.758 1.926-1.323 2.982-1.892-1.047 0-1.963.668-3.057.579-1.73-.033 1.58-2.396 2.029-2.603 9.719-5.092 21.013.367 29.488 5.657 6.63 4.42 13.118 9.361 21.313 10.547 3.3.575 10.453.151 8.017-4.405-.71-.946-1.893-.527-1.785.39.13.716.72.57.902-.065-.748 2.504-3.516-1.374-.636-3.7-.673.015-1.178.24-1.678.556 1.042-3.996 7.007-3.582 8.414.16.028.075.056.155.08.23a.193.193 0 00-.023-.042c.028.203.05.4.074.593.407 3.718-.706 6.199-2.678 7.77l-.005-.004z" fill="#fff"/><path d="M10.57 69.142a1.918 1.918 0 00-.169-.136c-.065-.052-.14-.099-.22-.15a2.97 2.97 0 00-.626-.297l-.257-.499 2.6-.315.009.41-1.333.352c.07.056.136.113.197.179.056.061.102.122.145.179l-.346.277zm1.655 1.978c-.038-.024-.085-.048-.136-.076a1.266 1.266 0 00-.178-.075 2.16 2.16 0 00-.477-.127l-.247-.32 1.79-.56.056.287-.893.418a.713.713 0 01.16.104c.046.038.088.07.126.108l-.21.24h.009zm-1.352-14.915a5.98 5.98 0 00.14-.471 5.9 5.9 0 00.122-.546c.033-.193.061-.39.08-.593.018-.207.028-.41.018-.612l.58-.692 3.282 4.453-.837.607-2.225-2.786a3.948 3.948 0 01-.164.574c-.07.188-.14.357-.215.513l-.78-.447zm9.097-5.451c.183-.066.37-.14.571-.225a6.653 6.653 0 001.127-.627c.173-.117.332-.249.472-.385l.982.051-.16 6.17-1.322-.056.051-4.377a4.1 4.1 0 01-.626.301 7.33 7.33 0 01-.669.226l-.425-1.078zm5.101-.056a7.248 7.248 0 001.23-.278c.205-.066.406-.141.598-.226.196-.084.374-.178.537-.287l.954.245-1.355 6.02-1.286-.316.902-4.283c-.206.076-.43.132-.673.174a7.786 7.786 0 01-.701.09l-.206-1.14zM48.16 61.09c.164.028.341.056.524.075.187.024.373.033.56.038.188 0 .374 0 .557-.014.182-.015.355-.038.519-.08l.696.451-2.996 4.688-1-.65 2.16-3.374c-.193 0-.394-.014-.609-.047a6.953 6.953 0 01-.607-.122l.196-.975v.01zm3.193 2.546c.178.019.364.037.56.047.197.01.398.01.595 0a6.23 6.23 0 00.593-.061c.197-.029.384-.075.566-.132l.71.456-2.683 3.926-.827-.353 1.608-2.749a4.203 4.203 0 01-.599 0 5.917 5.917 0 01-.607-.08l.08-1.05.004-.004zm12.94 4.899c.075-.037.154-.08.234-.122.08-.047.159-.094.233-.146.075-.052.15-.103.215-.16.07-.052.131-.108.183-.165l.392-.056.201 2.664-.682.075-.06-2.01c-.08.057-.165.113-.263.165a5.325 5.325 0 01-.285.141l-.168-.38v-.005zm6.737-3.209a5.73 5.73 0 00-.057-.805 5.099 5.099 0 00-.07-.4 2.873 2.873 0 00-.108-.372l.192-.532 2.992 1.788-.229.754-2.16-1.266c.024.136.038.287.042.442a6.81 6.81 0 010 .452l-.603-.061zm.612-4.528a5.892 5.892 0 00-.407-.527c-.075-.085-.154-.165-.23-.245a2.286 2.286 0 00-.237-.202l-.127-.466 2.712-.273.205.64-1.944.216c.08.085.154.18.233.287.075.109.145.212.21.316l-.406.263-.01-.01zm-2.02 6.335c.042-.08.089-.165.131-.254a2.84 2.84 0 00.117-.273c.037-.09.065-.18.093-.269a1.76 1.76 0 00.061-.249l.318-.31 2.136 2.08-.659.564-1.5-1.713c-.033.1-.08.203-.136.31a3.734 3.734 0 01-.173.307l-.388-.198v.005zm-59.45-3.445c.5.094.86.268 1.108.517.239.24.374.546.412.928.037.38-.043.715-.253.97-.229.277-.608.45-1.168.512a2.7 2.7 0 01-.856-.033 1.765 1.765 0 01-.715-.31 1.486 1.486 0 01-.468-.57 1.547 1.547 0 01-.13-.753c.032-.541.266-.918.668-1.134.37-.198.846-.235 1.402-.127zm.028.81a4.066 4.066 0 00-.462-.024c-.15 0-.281.023-.398.056a.596.596 0 00-.28.165.419.419 0 00-.108.296c0 .123.028.226.098.311a.73.73 0 00.285.202c.122.052.258.085.417.109.15.019.313.028.49.028.169 0 .314-.014.444-.033.127-.019.23-.052.314-.094a.439.439 0 00.182-.16.405.405 0 00.047-.245.527.527 0 00-.084-.25.563.563 0 00-.201-.173 1.216 1.216 0 00-.314-.114 2.567 2.567 0 00-.43-.07v-.005zm1.197-6.331c.734.536 1.146 1.078 1.295 1.633.14.513.07 1.026-.196 1.558-.262.522-.617.87-1.094 1.064-.5.202-1.127.211-1.94 0a4.833 4.833 0 01-1.211-.485 3.067 3.067 0 01-.921-.795 2.36 2.36 0 01-.467-1.083 2.428 2.428 0 01.15-1.261c.345-.909.99-1.417 1.864-1.502.804-.08 1.67.24 2.525.862l-.005.009zm-.622 1.37a6.03 6.03 0 00-.729-.353 2.845 2.845 0 00-.687-.189 1.06 1.06 0 00-.57.07.716.716 0 00-.365.401.728.728 0 00-.023.541c.06.17.173.325.331.476.155.145.346.277.575.4.216.117.459.225.716.32.248.094.472.164.673.207.196.047.364.06.519.052a.815.815 0 00.383-.109.646.646 0 00.257-.296.672.672 0 00.075-.39.784.784 0 00-.159-.373 2.089 2.089 0 00-.383-.371 5.753 5.753 0 00-.608-.396l-.005.01zm8.583-6.5c.215.97.192 1.727-.06 2.316-.243.57-.678.955-1.31 1.172-.645.22-1.234.183-1.785-.132-.58-.33-1.07-.956-1.477-1.925a5.502 5.502 0 01-.407-1.46c-.056-.47-.033-.903.08-1.284.112-.39.303-.72.57-.984a2.25 2.25 0 011.019-.56c.827-.216 1.552-.038 2.164.504.58.513.982 1.313 1.216 2.353h-.01zm-1.355.419a7.411 7.411 0 00-.28-.829 3.478 3.478 0 00-.351-.649 1.203 1.203 0 00-.435-.39.69.69 0 00-.524-.038.688.688 0 00-.416.306c-.089.15-.136.338-.14.56-.01.22.019.47.08.743.06.269.144.556.252.857.107.301.215.555.327.781.112.221.23.4.355.537a.95.95 0 00.388.277c.136.052.28.047.44-.004a.674.674 0 00.36-.26.957.957 0 00.15-.451c.018-.184.009-.39-.029-.63a6.599 6.599 0 00-.177-.81zm23.322 6.523c-.49.748-.986 1.219-1.5 1.43-.5.208-.982.175-1.459-.093-.477-.269-.757-.669-.832-1.21-.08-.555.07-1.233.477-2.047.21-.424.44-.786.692-1.083a2.93 2.93 0 01.813-.687c.29-.16.58-.24.874-.24.295 0 .585.08.856.245.566.334.846.847.855 1.52.01.65-.257 1.379-.776 2.17v-.005zm-1-.579a6.18 6.18 0 00.365-.678c.098-.216.173-.414.21-.597.042-.184.042-.344.005-.485a.515.515 0 00-.253-.325.512.512 0 00-.402-.061 1.034 1.034 0 00-.411.245c-.14.127-.276.287-.416.484a6.414 6.414 0 00-.402.66 6.204 6.204 0 00-.318.668 2.313 2.313 0 00-.16.546.918.918 0 00.024.414.49.49 0 00.234.273.51.51 0 00.355.066.849.849 0 00.365-.189 2.59 2.59 0 00.388-.414c.136-.174.271-.376.411-.612l.005.005zm-2.987-1.958c-.482.767-1 1.266-1.548 1.492-.547.226-1.08.174-1.59-.15-.509-.325-.78-.786-.813-1.384-.032-.598.192-1.28.678-2.047.239-.382.491-.697.753-.942s.528-.423.8-.532c.27-.108.542-.155.808-.131.267.023.524.113.776.273.51.324.78.786.814 1.383.032.598-.192 1.276-.674 2.038h-.004zm-.996-.63c.145-.231.262-.443.36-.645a2.87 2.87 0 00.201-.55.883.883 0 000-.443.529.529 0 00-.238-.306.517.517 0 00-.374-.08.91.91 0 00-.398.193 2.641 2.641 0 00-.411.414 6.847 6.847 0 00-.786 1.247c-.098.202-.163.39-.196.555a.882.882 0 000 .443.517.517 0 00.234.306.53.53 0 00.378.085.886.886 0 00.398-.194c.136-.103.271-.244.411-.418.14-.174.28-.377.426-.607h-.005zm-3.436-1.878c-.304.856-.701 1.454-1.187 1.793-.486.339-1.015.41-1.585.202-.57-.207-.935-.598-1.094-1.172-.159-.574-.089-1.29.22-2.146a4.75 4.75 0 01.533-1.082c.2-.297.425-.528.663-.697a1.78 1.78 0 01.758-.306c.266-.038.537 0 .813.094.57.207.93.598 1.094 1.172.159.574.089 1.29-.215 2.137v.005zm-1.108-.4c.089-.255.16-.49.21-.706a2.53 2.53 0 00.075-.584.885.885 0 00-.093-.433.531.531 0 00-.3-.25.513.513 0 00-.383 0 .951.951 0 00-.346.273 2.422 2.422 0 00-.313.495 6.969 6.969 0 00-.285.682 5.16 5.16 0 00-.21.71 2.599 2.599 0 00-.075.59.92.92 0 00.093.432c.061.118.16.198.295.25a.527.527 0 00.388 0 .914.914 0 00.346-.273c.107-.132.21-.302.308-.5.099-.202.197-.428.285-.682l.005-.004zm14.3 7.77c-.44.805-.925 1.341-1.463 1.605s-1.075.25-1.608-.047c-.533-.297-.837-.739-.907-1.341-.07-.598.112-1.3.552-2.109.22-.4.449-.734.696-.998.248-.263.505-.46.772-.588.266-.127.532-.193.804-.184.27.01.537.08.8.222.537.296.836.739.906 1.336.07.598-.112 1.3-.547 2.1l-.005.004zm-1.042-.574c.13-.24.238-.461.318-.673.084-.207.14-.4.163-.57a.877.877 0 00-.028-.447.547.547 0 00-.257-.296.507.507 0 00-.383-.057.982.982 0 00-.388.217 2.321 2.321 0 00-.388.447c-.131.184-.257.395-.388.635s-.239.466-.323.673c-.084.212-.14.4-.163.575a.933.933 0 00.028.447.504.504 0 00.257.291c.13.071.257.09.388.062a.898.898 0 00.388-.217c.126-.113.257-.264.388-.452.13-.183.262-.4.392-.635h-.004zm13.057 5.855c-.108.71-.346 1.27-.72 1.647-.412.41-.93.55-1.534.395-.626-.164-1.023-.56-1.178-1.162-.145-.565-.032-1.228.3-1.93.15-.32.313-.57.486-.762a1.65 1.65 0 01.528-.405 1.28 1.28 0 01.556-.127c.187 0 .379.038.58.113.402.155.682.405.855.758.178.372.23.852.136 1.478l-.01-.005zm-.898-.301c.047-.193.075-.368.094-.528a1.9 1.9 0 000-.4.623.623 0 00-.108-.287.48.48 0 00-.238-.174.431.431 0 00-.285-.019.604.604 0 00-.248.16 1.63 1.63 0 00-.23.33 5.024 5.024 0 00-.388 1.078c-.041.193-.06.367-.055.522a.82.82 0 00.102.405.477.477 0 00.3.221.496.496 0 00.369-.028.817.817 0 00.294-.278 2.19 2.19 0 00.225-.452 4.31 4.31 0 00.168-.56v.01zm12.22.978c.197.429.262.81.173 1.13-.093.339-.337.565-.725.663-.392.1-.748.024-1.042-.225-.28-.236-.472-.598-.566-1.06a1.893 1.893 0 01-.042-.564 1 1 0 01.122-.41.857.857 0 01.257-.277c.108-.076.229-.123.374-.156.294-.066.56-.028.804.109.252.146.467.4.65.79h-.005zm-.645.15a3.041 3.041 0 00-.145-.32 1.573 1.573 0 00-.154-.225.468.468 0 00-.173-.122.337.337 0 00-.206-.01.296.296 0 00-.168.094.365.365 0 00-.075.18.958.958 0 000 .258c.014.104.037.217.075.344.037.127.08.249.126.362.047.113.103.207.164.287.06.08.13.137.205.174a.33.33 0 00.244.02.33.33 0 00.196-.128.41.41 0 00.065-.235 1.68 1.68 0 00-.037-.316 3.143 3.143 0 00-.112-.357l-.005-.005zm3.73-5.252c-.504-.169-.864-.376-1.098-.616-.22-.226-.327-.475-.327-.748 0-.269.103-.462.318-.58.224-.122.565-.15 1.051-.084.262.038.5.094.725.174.23.085.435.188.608.31.177.128.322.274.425.434.108.165.169.339.178.522.023.381-.154.626-.514.725-.342.094-.81.042-1.37-.146l.005.01zm-.013-.63c.158.042.308.075.444.099.14.023.261.033.369.028a.474.474 0 00.252-.066c.061-.042.09-.104.084-.188a.336.336 0 00-.102-.23.93.93 0 00-.257-.184 2.087 2.087 0 00-.37-.146 4.905 4.905 0 00-.837-.17 1.527 1.527 0 00-.294 0 .413.413 0 00-.182.07c-.042.038-.061.09-.061.156s.023.132.065.188a.588.588 0 00.187.16c.08.052.183.1.3.142.121.047.257.089.41.131l-.008.01zm-3.067-4.725c.379-.109.682-.137.93-.1a.92.92 0 01.584.307c.16.178.206.362.131.56-.084.216-.317.428-.734.645a2.852 2.852 0 01-.668.254c-.23.056-.44.075-.631.056a1.03 1.03 0 01-.491-.16.674.674 0 01-.271-.343c-.098-.273-.019-.523.21-.744.21-.198.528-.353.945-.47l-.005-.005zm.234.362a4.01 4.01 0 00-.342.132 1.541 1.541 0 00-.266.146.467.467 0 00-.16.16.175.175 0 000 .178c.034.062.08.104.15.128.07.023.16.028.262.014.103-.01.215-.038.337-.076.117-.037.243-.084.374-.136a2.72 2.72 0 00.322-.155.97.97 0 00.206-.146.294.294 0 00.084-.137c.01-.042-.004-.09-.042-.131a.298.298 0 00-.14-.095.518.518 0 00-.196-.018c-.075 0-.164.018-.262.042a4.2 4.2 0 00-.327.094zm-2.048 2.673c.06-.24.145-.41.252-.532a.579.579 0 01.374-.207c.16-.023.286.014.374.127.099.118.15.32.136.617-.005.16-.028.31-.07.447a1.065 1.065 0 01-.178.358.62.62 0 01-.257.207.521.521 0 01-.294.028c-.197-.042-.318-.17-.37-.372-.047-.178-.032-.404.038-.668l-.005-.005zm.294 0c-.018.08-.028.156-.037.226a.669.669 0 000 .193.313.313 0 00.042.141.153.153 0 00.103.066.146.146 0 00.126-.037.392.392 0 00.098-.137.965.965 0 00.07-.207 2.073 2.073 0 00.056-.475.518.518 0 00-.018-.16.183.183 0 00-.052-.094.122.122 0 00-.093-.024.219.219 0 00-.103.042.348.348 0 00-.08.1.826.826 0 00-.06.155 1.905 1.905 0 00-.051.207v.004zm-5.202 7.93c.056.57-.033 1.05-.295 1.394-.29.38-.725.55-1.3.49-.584-.067-1.01-.34-1.248-.8-.22-.424-.238-.942-.08-1.512.07-.254.164-.46.276-.626.108-.155.23-.277.37-.362a1.24 1.24 0 01.444-.165c.159-.023.327-.023.514.01.374.06.664.211.888.451.234.255.379.617.43 1.111v.01zm-.86-.126c0-.156-.005-.292-.024-.415a1.222 1.222 0 00-.08-.3.507.507 0 00-.15-.203.46.46 0 00-.238-.1.424.424 0 00-.247.024.462.462 0 00-.183.151.922.922 0 00-.13.273c-.038.113-.066.25-.094.405-.023.16-.037.315-.042.461 0 .15.014.287.047.41a.713.713 0 00.163.305.48.48 0 00.304.142.484.484 0 00.323-.062.596.596 0 00.205-.254c.047-.108.084-.235.108-.38.023-.142.033-.293.033-.457h.004z" opacity=".47" fill="#260E61"/><path d="M42.321 33.891a.976.976 0 00.094.052c.024-.08-.014-.085-.094-.052zm-.444 1.407c-.93.391-1.122 6.199-2.73 5.295-1.73-.979-7.405-.946-8.76-2.419-.033-.038-.099-.056-.146-.085-.49 3.408-1.888 3.238-3.847 2.862-2.337-.447-4.324-1.605-5.956-3.337-.598-.63-.794-1.45-.336-2.278.224-.405 1.444-1.172 1.842-1.337 1.098-.447 2.23-.57 3.333 0 .299.16.27.024.51-.188.817-.701 14.07-1.257 15.24-.663.196.098.972.555 1.294.738-.341.156-.584 1.215-.444 1.408v.004z" fill="#260E61"/><path d="M41.685 35.68c.01 2 .187 2.183-1.505 3.61-2.108-1.026-8.461-.824-10.233-2.264-.57.611-.893.706-1.029 1.562-.121.753-.13.8-.87.603-2.566-.697-4.945-1.803-7.058-3.45-.094-.17.051-.198.145-.259 1.36-.866 2.819-1.082 4.347-.57.421.142 15.268-.964 16.62-.32.247.118-.314.82-.407 1.083l-.01.005z" fill="#fff"/><path d="M51.002 38.273s.02.014.033.028c.02-.052.005-.061-.033-.028z" fill="#260E61"/><path d="M59.398 56.308c-.547.73-1.383.795-2.225.39-2.314-1.096-4.282-2.743-5.806-5.012-1.29-1.92-.991-3.483.393-4.744-.052-.047-.094-.103-.145-.132-1.795-.828-3.3-2.108-4.88-3.43.925-.796 1.29-1.497 1.734-2.75 1.309-.253 2.917-2.705 3.02-3.016.439.405 6.52 6.655 7.629 7.775.841.852.687 1.901.234 2.871-.29.626-.702 1.148-1.155 1.619-.22.235-.22.348.065.612 1.043.97 1.44 2.198 1.53 3.492.032.457-.123 1.972-.398 2.325h.004z" fill="#260E61"/><path d="M58.73 55.282c-.042.132-.201.193-.313.113-2.385-1.61-4.442-3.657-6.25-6.053-1.29-1.299 1.8-1.421 1.977-2.739-1.73-1.106-3.908-2.254-5.591-3.45.318-1.586 1.089-3.219 1.851-4.447 1.36 1.327 6.274 6.057 7.517 7.267 1.281 1.157-.243 2.47-.724 3.605-.197.348-.206.612.126 1.007 1.047 1.313 1.879 3.276 1.407 4.697zm15.53-32.348c-.64.532-1.286.909-1.917 1.304-1.187.748-2.305 1.624-3.553 2.245-2.169 1.073-4.198 2.405-6.367 3.473l.682-4.574c2.572-.923 4.956-2.236 7.223-3.803.435-.301.874-.598 1.29-.922.285-.222.454-.212.552.16.15.593.902 1.835 2.094 2.122l-.004-.005zm6.83-4.781c-.505.696-1.67.946-2.516.48 1.066-.344 2.127-.523 2.544-1.704.364-1.026.378-2.024-.024-3.205.617.438.72.946.762 1.416.094 1.083-.117 2.114-.766 3.008v.005z" fill="#fff"/><path d="M79.99 17.094a.738.738 0 01-.107.06.63.63 0 00.056-.112c.178-1.261-1.135-2.226-2.529-2.26-.444-.008-.58-.145-.546-.555.013-.183-.005-.367-.005-.555-.01-1.035.051-1.092 1.061-.965.865.113 2.192.443 2.464 1.393.29 1.036.425 2.085-.398 2.989l.005.005z" fill="#fff"/><path d="M75.49 19.061c-.553.687-.688 1.13-.515 1.332.73-.626 1.753-.974 2.104-1.205.168.372.64.786 1.224.796.253 0 .136.226.028.357-.243.302-.58.452-.93.546-.818.226-3.436.82-4.282-.64-.365-.626-.538-1.294-.36-2.052.28-1.195.739-2.362.753-3.614.023-2.198-.529-4.246-1.543-6.18-.178-.339-.58-.744-.313-1.092.261-.343.804-.179 1.224-.16.538.033.936.348 1.267.763.889 1.106 1.099 2.475 1.417 3.793.243.998.22 2.028.35 3.045.033.235.038.504-.243.546-.402.061-2.459 1.586-2.45 2.866 1.698-2.706 3.89-2.772 4.984-2.334.706.277.762.555.243 1.101-.168.179-2.328 1.436-2.964 2.142l.005-.01z" fill="#fff"/><path d="M41.204 17.292c-1.267-1.107-2.478-2.278-3.675-3.47-.135-.136-.224-.263-.2-.474.098-1.055-.31-1.92-1.038-2.646-.482-.484-.856-1.03-1.062-1.69-.444-1.444-.58-2.922-.542-4.423.014-.612.07-1.229.033-1.84-.042-.65-.407-1.106-1.038-1.304-1.314-.41-3.08.664-3.254 2.028-.098.815-.093 1.648-.074 2.467.014.611.36 1.34.126 1.793-.248.475-1.024.663-1.543 1.021-.687.47-1.43.913-1.8 1.7-.173.361-.378.64-.663.907-.73.678-.72 1.483-.033 2.189.425.433.832.88 1.257 1.308.631.636 1.333 1.092 2.282.796.187-.057.299 0 .411.15.827 1.111 1.982 1.506 3.31 1.492.159 0 .252.033.346.174.813 1.215 1.823 2.24 2.87 3.238.042.043.084.08.13.123.356-.39.777-.72 1.24-.97a.505.505 0 00-.052-.042c-.028-.024-.056-.052-.088-.075l-.197-.17a3.512 3.512 0 01-.154-.122c-.874-.692-1.744-1.389-2.623-2.071-.299-.235-.303-.372.061-.527.617-.264 1.276-.974 1.678-1.94a44.753 44.753 0 003.348 3.14c.042.038.088.075.135.113l.131.108c.3-.273.626-.508.977-.71a14.746 14.746 0 01-.3-.264v-.01zm-13.277-5.917c.59-1.124 1.6-1.835 2.688-2.386.435-.216.416.377.543.617.177.334-.15.268-.323.31-.865.189-1.758.297-2.31 1.14-.532.818-.467 1.256.319 1.863.088.07.224.104.257.297-.435.08-.809-.024-1.057-.381-.313-.448-.37-.989-.121-1.46h.004zm1.548 3.031c-.332.043-.664.015-.94-.155-.73-.438-1.258-1.082-1.636-1.835-.094-.18-.14-.386.06-.603.117.297.188.593.337.843.5.814 1.122 1.45 2.188 1.36.14-.014.379-.052.379.17 0 .183-.22.197-.384.22h-.004zm2.706 1.172c-1.182-.202-1.201-.226-.813-1.374.598.381 1.047.909 1.618 1.384-.337.099-.57.028-.81-.01h.005zm2.59-.494c-.294.23-.58.607-1.052.396-.864-.918-1.608-1.977-2.814-2.518-.196-.085-.374-.207-.56-.311-.22-.16-.487-.179-.74-.254-.261-.08-.602-.118-.64-.47-.037-.354.225-.556.5-.707 1.277-.715 2.515-.602 3.75.132.51.301.906.734 1.379 1.073-.15-.795-.706-1.407-1.31-1.713-.953-.485-1.35-1.144-1.481-2.146-.206-1.586-.398-3.168-.145-4.763.089-.584.224-1.167.92-1.389.665-.207 1.062 0 1.188.697.089.49.005.974-.032 1.464-.16 2.061-.024 4.08.818 6.005.159.363.369.678.617.98.94 1.152.79 2.592-.398 3.515v.01z" fill="#260E61"/><path d="M32.986 15.588c-.337.099-.57.028-.81-.01-1.182-.202-1.2-.226-.813-1.374.599.381 1.048.908 1.618 1.384h.005zm-3.128-1.403c0 .184-.22.198-.383.221-.332.043-.664.015-.94-.155-.73-.438-1.257-1.082-1.636-1.835-.094-.18-.14-.386.06-.603.118.297.188.593.337.843.5.814 1.122 1.45 2.188 1.36.14-.014.379-.052.379.17h-.005z" fill="#fff"/><path d="M30.84 9.916c-.865.189-1.758.297-2.31 1.14-.533.818-.467 1.256.318 1.863.09.07.225.104.258.297-.435.08-.81-.024-1.057-.381-.313-.448-.37-.989-.122-1.46.59-1.124 1.6-1.835 2.689-2.386.434-.216.416.377.542.617.177.334-.15.268-.323.31h.005z" fill="#fff"/><path d="M34.771 15.084c-.294.23-.58.607-1.051.396-.865-.918-1.609-1.977-2.815-2.518-.196-.085-.374-.207-.56-.311-.22-.16-.487-.179-.74-.254-.261-.08-.602-.118-.64-.47-.037-.354.225-.556.5-.707 1.277-.715 2.515-.602 3.75.132.51.301.907.734 1.379 1.073-.15-.795-.706-1.407-1.31-1.713-.953-.485-1.35-1.144-1.481-2.146-.206-1.586-.398-3.168-.145-4.763.089-.584.224-1.167.92-1.389.665-.207 1.062 0 1.188.697.09.49.005.974-.032 1.464-.16 2.061-.024 4.08.818 6.005.159.363.369.678.617.979.94 1.153.79 2.593-.398 3.516v.01zm5.629 3.073l-2.164 1.652c-.029-.023-.057-.051-.09-.075l-.196-.17a3.572 3.572 0 01-.154-.122c-.874-.692-1.744-1.388-2.623-2.07-.299-.236-.303-.372.061-.528.617-.263 1.276-.974 1.678-1.939a44.773 44.773 0 003.483 3.252h.005z" fill="#fff"/><path d="M82.361 14.397c-.29-.63-.668-1.177-1.384-1.37a.647.647 0 01-.336-.25c-.332-.418-.79-.616-1.286-.77-.748-.241-1.52-.255-2.29-.208-.36.019-.468-.07-.529-.447-.224-1.356-.537-2.688-1.3-3.86-.77-1.185-2.098-1.698-3.384-1.355-1.155.31-1.847 1.27-1.085 2.523.58.936 1.076 1.915 1.342 2.998.365 1.492.533 3.017-.014 4.47-.406 1.088-.692 2.142-.388 3.277.089.343.014.494-.252.687-2.44 1.812-4.979 3.45-7.83 4.546-.188.07-.37.141-.557.212a4.5 4.5 0 01-.196.616c.08-.028.159-.056.243-.089 2.571-.922 4.955-2.235 7.222-3.803.435-.3.875-.597 1.29-.922.286-.221.454-.212.552.16.15.593.903 1.835 2.095 2.122-.64.532-1.286.909-1.917 1.304-1.187.748-2.305 1.624-3.553 2.245-2.169 1.073-4.198 2.405-6.367 3.473-.066.033-.136.071-.201.1a4.81 4.81 0 01.884 1.835c.589-.363 1.178-.72 1.762-1.087 2.795-1.746 5.605-3.464 8.372-5.248 1.085-.697 2.24-1.365 2.726-2.692.056-.16.192-.123.304-.132 1.566-.136 2.678-.96 3.45-2.301.15-.25.299-.485.589-.57 2.333-.71 2.852-3.7 2.047-5.464h-.009zm-4.441-1.685c.865.113 2.192.442 2.464 1.393.29 1.036.425 2.085-.398 2.989a.786.786 0 01-.107.06.644.644 0 00.056-.112c.177-1.261-1.136-2.226-2.53-2.26-.443-.009-.579-.145-.546-.555.014-.183-.005-.367-.005-.555-.01-1.035.052-1.092 1.061-.965l.005.005zm-2.945 7.686c.73-.626 1.753-.975 2.104-1.205.168.372.64.786 1.224.795.253 0 .136.226.028.358-.243.301-.58.452-.93.546-.818.226-3.436.819-4.282-.64-.365-.626-.538-1.294-.36-2.052.28-1.196.739-2.363.753-3.615.023-2.198-.529-4.245-1.543-6.18-.178-.338-.58-.743-.313-1.091.261-.344.804-.18 1.224-.16.538.033.936.348 1.267.762.889 1.106 1.099 2.476 1.417 3.793.243.998.22 2.029.35 3.046.033.235.038.503-.243.546-.402.06-2.459 1.586-2.45 2.866 1.698-2.706 3.89-2.772 4.984-2.335.706.278.762.556.243 1.102-.168.179-2.328 1.435-2.964 2.141-.551.683-.687 1.12-.514 1.327l.005-.004zm6.115-2.245c-.505.696-1.67.946-2.516.48 1.066-.344 2.127-.523 2.544-1.704.364-1.026.378-2.024-.024-3.205.617.438.72.946.762 1.417.094 1.082-.117 2.113-.766 3.007v.005z" fill="#260E61"/><path d="M63.148.748c0-.772-.973-1.007-1.417-.419C53.79 7.116 45.631 13.78 37.46 20.28c-2.463 1.91-10.228 7.846-10.228 7.846-.622.46-.51 1.435.397 1.736.098.033 10.102 3.069 14.142 4.537a473.552 473.552 0 00-3.768 8.378 1.63 1.63 0 00.93 2.184c1.81.659 2.814 1.256 6.035 2.734a1.62 1.62 0 002.123-.748c1.276-2.551 3.07-6.133 3.964-7.916 3.211 1.863 6.951 4.033 9.663 5.614 1.145.73 2.734-.17 2.725-1.525-.042-13.916-.29-31.773-.294-42.367V.748zM60.15 40.24c-3.567-2.207-7.512-4.848-10.827-6.697-1.103 2.565-3.137 8.09-4.408 11.13a.539.539 0 01-.701.292c-1.342-.555-2.936-1.205-4.213-1.732a.54.54 0 01-.294-.71c1.02-2.443 4.203-10.345 4.203-10.345s-10.995-2.9-14.988-4c.59-.471 22.944-18.247 32.687-25.89-.337 10.048-1.066 27.155-1.459 37.952z" fill="#260E61"/><path d="M61.61 2.287c-.337 10.049-1.066 27.157-1.459 37.953-3.567-2.207-7.513-4.848-10.827-6.697-1.103 2.565-3.137 8.09-4.408 11.13a.539.539 0 01-.701.292c-1.342-.555-2.936-1.204-4.213-1.732a.54.54 0 01-.294-.71c1.019-2.443 4.203-10.345 4.203-10.345s-10.996-2.9-14.988-4c.59-.471 22.944-18.247 32.686-25.89z" fill="#fff"/><path d="M43.85 23.918s-1.763 5.224 2.931 6.486c3.745 1.002 5.488-.297 6.802-1.342.963-.767 1.59-2.183 1.59-2.183s-3.862 1.53-7.434.23c-3.744-1.398-3.884-3.19-3.884-3.19h-.005zm.182 1.633s.197 1.332 3.572 2.396c3.253 1.026 5.282.301 5.282.301s-1.884 2.593-6.128 1.308c-3.095-.936-2.721-4.005-2.721-4.005h-.005zm11.57-6.951c.267-.349.473-.744.88-.98a1.74 1.74 0 012.08.198c.593.528.729 1.229.364 1.987-.229.475-.486.931-.734 1.402-.084.165-.154.334-.248.485-.7 1.139-1.243 2.372-2.099 3.412-.439.537-1.014.72-1.692.485-.664-.23-1.066-.8-1.112-1.52-.033-.5.177-.913.392-1.328.72-1.383 1.45-2.762 2.174-4.146l-.005.005zm.702.028c-.505.946-1.024 1.887-1.51 2.843-.332.65-.655 1.308-.903 1.995-.182.509.01.97.5 1.243.44.24.786.056 1.048-.31a34.628 34.628 0 002.847-4.801c.411-.612.36-.998-.187-1.417-.715-.55-1.3-.4-1.795.452v-.005zM45.8 15.517c.205-.306.364-.65.668-.856.51-.353 1.108-.316 1.538.127.43.442.519 1.04.229 1.699-.178.414-.379.81-.57 1.219-.066.14-.122.287-.197.423-.542.989-.972 2.062-1.622 2.97-.336.47-.767.64-1.267.452-.49-.184-.776-.664-.8-1.285-.013-.428.15-.786.319-1.144.56-1.2 1.131-2.4 1.692-3.6l.01-.005zm.523.01c-.393.823-.795 1.637-1.173 2.47-.258.565-.51 1.14-.711 1.732-.145.443-.014.833.346 1.06.318.197.58.032.785-.288a32.56 32.56 0 002.207-4.18c.318-.53.285-.86-.112-1.213-.52-.457-.959-.32-1.342.423v-.005z" fill="#260E61"/><path d="M72.268 70.667c-9.172 6.246-26.104.061-35.127-4.63l.015.013c-3.123-1.67-13.366-9.323-22.145-6.895 10.186-8.834 27.053 6.707 37.791 10.129 5.348 1.958 13.969 3.167 18.709.08.22-.137.43-.287.636-.447 1.972-1.572 3.09-4.053 2.678-7.77-.023-.194-.046-.391-.075-.594.01.019.02.033.024.052 1.636 3.417.37 7.686-2.506 10.067v-.005z" fill="url(#paint2_linear_52_37)"/><path d="M74.797 58.624c-1.907-2.829-7.97-4.043-9.948 1.51-3.03-1.652-9.934-5.205-12.613-6.542.01 0 .015 0 .024.01-16.703-8.754-33.776-17.165-50.297-26.31-2.767-1.529-2.557 2.683.318 7.122 3.17 4.885 8.7 9.582 14.913 13.714-3.048.236-5.993 1.19-8.634 3.215-.81.696-2.277 2.075-1.104 3.064.267.23.028.31-.07.41-3.071 2.818-4.118 7.53-2.225 11.28 1.926 3.992 5.769 7.62 10.369 7.69 1.075-.046 1.547-.606 1.842-1.096 15.885 5.243 33.799 7.879 49.815 1.789 9.658-3.238 10.457-11.644 7.61-15.866v.01zM1.8 28.535c19.32 10.208 43.728 22.638 62.97 33.11.14 1.308.743 3.168 2.833 3.431.603.075 1.65-.475 1.556-1.158.365.791.08 1.393-.771 2.048-1.561 1.19-6.643.908-12.837-1.257-19.11-6.664-25.955-11.785-31.663-15.037C12.94 43.652 3.791 35.284 1.8 28.535zm15.314 42.918c-1.089-.343-2.103-.78-2.996-1.44-.837-1.501-1.31-3.836-1.145-5.313 10.293 8.297 23.103 10.73 36.907 12.03-11.07.663-22.27-1.742-32.76-5.281l-.006.004zm50.264 1.106c-14.735 1.808-37.384-10.937-37.613-10.75 11.327 7.108 24.519 13.104 38.062 11.122-15.315 5.69-33.99.052-39.722-2.179-5.105-1.981-10.07-4.414-14.59-7.52.22-1.23.654-2.283 1.458-2.952 9.654 7.69 19.658 9.686 24.165 10.566-.51-.17-17.335-5.492-22.687-11.634.584-.527 1.631-.527 2.066-.532 3.277-.047 5.867 1.341 8.948 2.047-3.081-1.647-7.064-4.654-10.925-2.687-6.742 3.436-5.1 12.806-.964 14.52-2.575 1.115-8.424-4.072-7.89-7.602C6.291 69.864 2.8 59.16 8.7 55.136c.902-.758 1.926-1.322 2.982-1.887-1.047 0-1.963.668-3.057.574-1.725-.033 1.585-2.39 2.029-2.603 2.636-1.383 5.395-1.981 8.176-2.023 8.747 5.59 18.466 10.08 24.515 12.636 2.015.796 6.372 2.82 12.5 4.552 7.293 2.15 11.631 1.524 13.492 0 1.538-1.262 1.318-4.09-.715-4.128-.669-.01-1.323.48-1.248 1.2.126.71 1.028.527 1.21-.113-.748 2.504-3.52-1.374-.64-3.694-.673.009-1.178.24-1.674.55 1.038-3.995 7.008-3.581 8.415.16 1.992 5.295-1.781 11.733-7.311 12.2h.004z" fill="#260E61"/><path d="M68.383 65.96c-1.561 1.192-6.642.91-12.837-1.256-19.11-6.664-25.954-11.785-31.662-15.037C12.94 43.652 3.79 35.284 1.8 28.535c19.32 10.208 43.728 22.638 62.97 33.11.14 1.308.743 3.167 2.833 3.431.603.075 1.65-.475 1.556-1.158.365.79.08 1.393-.77 2.048l-.006-.005z" fill="url(#paint3_linear_52_37)"/><path opacity=".71" d="M7.685 35.383c6.017 4.994 12.636 9.234 19.42 13.089 10.2 5.713 21.055 10.415 32.21 13.86l3.73 1.153c-2.258-.663-5.316-1.45-7.503-2.179-9.869-3.153-19.588-7.394-28.606-12.538-6.783-3.878-13.356-8.236-19.25-13.385z" fill="#fff"/></g><defs><linearGradient id="paint0_linear_52_37" x1="14.38" y1="35.745" x2="78.098" y2="35.745" gradientUnits="userSpaceOnUse"><stop stop-color="#16CCE3"/><stop offset="1" stop-color="#4B30FD"/></linearGradient><linearGradient id="paint1_linear_52_37" x1="11.682" y1="66.102" x2="75.639" y2="66.102" gradientUnits="userSpaceOnUse"><stop stop-color="#16CCE3"/><stop offset="1" stop-color="#4B30FD"/></linearGradient><linearGradient id="paint2_linear_52_37" x1="15.006" y1="64.892" x2="75.494" y2="64.892" gradientUnits="userSpaceOnUse"><stop stop-color="#16CCE3"/><stop offset="1" stop-color="#4B30FD"/></linearGradient><linearGradient id="paint3_linear_52_37" x1="1.8" y1="47.596" x2="69.314" y2="47.596" gradientUnits="userSpaceOnUse"><stop stop-color="#F09"/><stop offset="1" stop-color="#FF0067"/></linearGradient><clipPath id="clip0_52_37"><path fill="#fff" d="M0 0h260v78H0z"/></clipPath></defs></svg>