<svg width="72" height="68" fill="none" xmlns="http://www.w3.org/2000/svg"><g clip-path="url(#clip0_82_2669)"><path d="M26.193 22.578l-4.917-.954a.402.402 0 01-.323-.336c-.296-1.949-.27-3.868.081-5.707a16.755 16.755 0 012.033-5.33.404.404 0 01.425-.193l4.917.951a.41.41 0 01.299.55 29.269 29.269 0 00-1.523 5.211 29.317 29.317 0 00-.512 5.409.409.409 0 01-.48.397v.002zm.535 1.447a.407.407 0 00-.327-.37l-4.583-.888c-.281-.065-.552.23-.464.508a16.907 16.907 0 007.213 9.74c.341.235.787-.208.558-.557-1.344-2.188-2.173-5.103-2.395-8.433h-.002zm-2.313-14.82l4.582.886a.404.404 0 00.44-.221c1.436-3.008 3.283-5.407 5.34-6.937.344-.24.092-.808-.312-.725-4.087.825-7.755 3.02-10.293 6.353-.183.225-.042.596.243.644zm11.156 16.343a.415.415 0 00-.258-.172l-7.07-1.368c-.252-.054-.51.171-.478.434.462 5.344 2.615 9.404 5.621 10.599a.409.409 0 00.546-.3l1.702-8.89a.398.398 0 00-.061-.305l-.002.002zm2.147-12.735c-1.876-.352-7.497-1.45-7.497-1.45a.407.407 0 00-.448.243 28.062 28.062 0 00-2.095 10.93c0 .194.14.358.327.393l7.497 1.45a.404.404 0 00.472-.32s1.542-8.067 2.062-10.77c.065-.338-.098-.435-.318-.476zm-7.163-2.947c-.126.227.027.537.283.58l7.069 1.37a.407.407 0 00.473-.32l1.704-8.891a.412.412 0 00-.417-.484c-3.224 0-6.717 2.97-9.112 7.747v-.002zM44.45 27.673a.411.411 0 00-.283-.583l-7.07-1.368c-.026-.004-.052-.008-.077-.008a.404.404 0 00-.395.33l-1.704 8.89c-.055.249.163.5.417.482 3.224 0 6.715-2.968 9.112-7.745v.002zM39.695 12.16l7.069 1.368c.253.06.506-.175.479-.432-.464-5.346-2.617-9.406-5.623-10.599-.224-.099-.503.057-.544.298l-1.704 8.89a.409.409 0 00.32.477l.003-.002zm-2.407 12.563l7.495 1.45a.405.405 0 00.45-.243 27.92 27.92 0 001.593-5.36 27.9 27.9 0 00.5-5.569.403.403 0 00-.327-.394l-7.495-1.45a.405.405 0 00-.473.322l-2.063 10.768a.409.409 0 00.32.476zm13.305 3.61l-4.584-.886a.403.403 0 00-.44.22c-1.436 3.006-3.283 5.406-5.34 6.936-.342.24-.09.818.314.725a16.786 16.786 0 0010.291-6.35c.185-.228.046-.601-.241-.645zm-2.313-14.82a.402.402 0 00.326.369l4.582.887c.283.065.552-.23.466-.508a16.896 16.896 0 00-7.213-9.738c-.344-.235-.788.208-.56.555 1.346 2.188 2.175 5.103 2.397 8.434h.002zm5.773 2.733a.402.402 0 00-.323-.336l-4.917-.952c-.24-.055-.484.15-.482.397a29.47 29.47 0 01-.51 5.407 29.283 29.283 0 01-1.523 5.213.408.408 0 00.297.547l4.92.952a.4.4 0 00.422-.191c.996-1.7 1.681-3.494 2.033-5.332.352-1.835.38-3.756.083-5.707v.002z" fill="url(#paint0_linear_82_2669)"/><path d="M4.189 56.36c.397 0 .725-.033.984-.1.26-.067.466-.158.623-.273a.89.89 0 00.324-.408c.06-.158.09-.332.09-.526 0-.41-.192-.752-.577-1.025-.385-.272-1.047-.564-1.987-.88a15.418 15.418 0 01-1.227-.5 4.56 4.56 0 01-1.103-.707 3.374 3.374 0 01-.793-1.035c-.205-.405-.307-.898-.307-1.479 0-.58.108-1.104.324-1.57.216-.466.523-.86.922-1.189a4.217 4.217 0 011.444-.752c.566-.176 1.204-.263 1.913-.263.843 0 1.57.091 2.185.273.613.181 1.12.381 1.517.598l-.812 2.232a7.752 7.752 0 00-1.165-.482c-.428-.138-.94-.21-1.544-.21-.674 0-1.159.095-1.454.281-.294.188-.442.474-.442.861a1 1 0 00.163.58c.108.158.262.3.46.427s.426.243.686.346c.259.102.544.209.856.318.65.242 1.216.481 1.698.716.481.235.882.512 1.2.826.318.314.556.683.713 1.108.158.424.234.938.234 1.542 0 1.173-.408 2.084-1.228 2.731-.819.648-2.053.972-3.701.972a9.78 9.78 0 01-2.682-.346 6.696 6.696 0 01-1.507-.616l.794-2.25a6.99 6.99 0 001.381.554c.548.164 1.218.245 2.014.245l.004.002zm15.02 1.835c-.458.133-1.047.257-1.77.371-.723.115-1.482.172-2.275.172-.794 0-1.478-.108-2.014-.325-.537-.218-.961-.524-1.274-.917a3.576 3.576 0 01-.667-1.406 7.65 7.65 0 01-.199-1.797v-5.318h2.69v4.99c0 .871.114 1.501.344 1.888.227.387.656.58 1.28.58a7.9 7.9 0 00.614-.027c.216-.018.408-.04.577-.063v-7.368h2.69v9.218l.004.002zm8.251-6.825a19.553 19.553 0 00-.848-.191 5.16 5.16 0 00-1.047-.1c-.17 0-.37.015-.606.044-.233.03-.412.064-.532.101v7.295h-2.69v-9.037c.482-.17 1.05-.33 1.706-.481a9.73 9.73 0 012.192-.227c.146 0 .319.01.525.027a10.84 10.84 0 011.226.182c.204.043.379.095.522.154l-.452 2.231.005.002zm6.012-6.931c.505 0 .969.051 1.391.154.42.102.747.203.975.3l-.525 2.16a3.48 3.48 0 00-.785-.244 4.1 4.1 0 00-.786-.081c-.325 0-.6.045-.822.136a1.26 1.26 0 00-.522.371 1.471 1.471 0 00-.271.563 2.882 2.882 0 00-.081.707v.472h3.322v2.25h-3.322v7.294h-2.69V48.467c0-1.234.346-2.213 1.038-2.94.691-.727 1.717-1.088 3.078-1.088zM45.514 56.09v2.431h-8.36V45.946h2.818V56.09h5.542zm4.568-9.872c0 .496-.16.887-.477 1.171a1.64 1.64 0 01-1.128.427 1.64 1.64 0 01-1.128-.427c-.318-.284-.48-.673-.48-1.17 0-.499.16-.888.48-1.172a1.64 1.64 0 011.128-.426c.432 0 .81.142 1.128.426.318.284.477.675.477 1.171zm-.254 12.303h-2.69v-9.546h2.69v9.546zm2.529-9.218a15.02 15.02 0 011.77-.371 14.525 14.525 0 012.275-.172c.794 0 1.478.106 2.014.318.537.21.96.511 1.273.898.313.387.537.847.668 1.379a7.42 7.42 0 01.199 1.779v5.389h-2.69V53.46c0-.871-.114-1.49-.344-1.85-.228-.364-.656-.546-1.28-.546-.193 0-.398.01-.614.028-.216.018-.408.04-.577.063v7.368h-2.69v-9.218l-.004-.002zm13.323 3.1a100.837 100.837 0 001.642-1.832 92.9 92.9 0 001.354-1.596h3.198c-.638.736-1.261 1.44-1.868 2.109-.607.67-1.273 1.36-1.994 2.073.361.328.734.72 1.12 1.174.385.454.758.924 1.12 1.408a20.999 20.999 0 011.75 2.78h-3.093a46.53 46.53 0 00-.658-1.047 24.574 24.574 0 00-.784-1.145 15.838 15.838 0 00-.874-1.1 7.203 7.203 0 00-.91-.89v4.184h-2.69V44.875l2.69-.436v7.964h-.003zM19.611 65.401l-3.634-2.024v1.963h-.391v-2.577l3.638 2.02v-1.96h.387V65.4zm2.079-.061v-2.516h3.6v.356h-3.21v.712h3.209v.35H22.08v.74h3.209v.356h-3.6v.002zm7.303 0v-2.16h-1.78v-.356h3.94v.356H29.38v2.16h-.387zm5.362.053l-1.596-2.569h.432l1.185 1.906 1.305-1.967 1.308 1.967 1.177-1.906h.436l-1.595 2.57-1.326-1.997-1.326 1.996zm7.222-.053c-.523 0-.908-.105-1.157-.312-.25-.207-.374-.515-.374-.924v-.028c0-.833.511-1.25 1.533-1.25h1.237c1.022 0 1.533.417 1.533 1.25v.028c0 .409-.124.717-.373.924-.25.207-.635.312-1.158.312h-1.241zm-.008-.355h1.255c.395 0 .682-.072.863-.214.18-.142.271-.365.271-.67v-.027c0-.304-.09-.529-.271-.673-.18-.144-.47-.217-.863-.217H41.57c-.395 0-.682.07-.863.215-.18.144-.27.37-.27.675v.028c0 .304.09.527.27.67.181.141.47.213.863.213zm8.711-1.237c0 .449-.22.723-.662.82l.546.774h-.453l-.497-.73h-2.517v.73h-.391v-2.516h2.84c.757 0 1.134.302 1.134.905v.017zm-.385-.004v-.017c0-.188-.059-.326-.177-.413-.117-.087-.308-.132-.571-.132h-2.45v1.076h2.45c.27 0 .463-.04.577-.119.114-.079.171-.21.171-.393v-.002zm5.627.164c.324.024.554.113.688.265.135.152.202.395.202.727v.442h-.39v-.448c0-.259-.056-.433-.168-.52-.112-.087-.306-.13-.59-.13H52.63v1.098h-.39v-2.516h.39v1.072h2.458l.73-1.072h.459l-.755 1.084v-.002z" fill="#fff"/><path d="M52.825 31.514c-.124-.427-.332-.678-.6-.96.106 1.029-2.002 5.932-5.357 5.788-3.258-.138-8.853-1.396-12.164-3.633-5.141-3.474-10.3-5.08-13.501-2.489-3.2 2.591-1.5 7.586-.745 7.106 17.745 5.766 27.119 1.994 28.73 1.218 0 0 4.635-1.254 3.635-7.03h.002z" fill="url(#paint1_linear_82_2669)"/><path d="M51.125 36.182c-2.403 1.916-7.228 1.27-10.171.194-5.647-1.795-14.52-9.957-19.875-5.318.004 0 .008 0 .012-.004-2.674 2.075-1.193 6.56.338 7.016-1.328.68-4.484-2.091-4.2-3.967-.732 2.573-2.568-3.047.532-5.156.471-.4 1.012-.696 1.568-.992-.55 0-1.034.352-1.608.304-.91-.017.832-1.258 1.067-1.366 5.11-2.674 11.05.191 15.51 2.97 3.487 2.32 6.898 4.915 11.208 5.537 1.737.3 5.497.08 4.216-2.312-.375-.496-.994-.277-.939.205.069.375.377.3.474-.033-.393 1.313-1.849-.723-.336-1.942-.356.006-.62.127-.882.293.548-2.1 3.685-1.88 4.426.082.016.04.03.081.043.121l-.012-.024c.016.107.028.212.04.312.214 1.953-.372 3.255-1.41 4.08z" fill="#fff"/><path d="M18.743 36.305a1.988 1.988 0 00-.204-.15 1.508 1.508 0 00-.328-.156l-.136-.263 1.368-.166.003.215-.7.184a1.142 1.142 0 01.178.188l-.183.146.002.002zm.873 1.036a.807.807 0 00-.163-.079 1.29 1.29 0 00-.252-.067l-.13-.168.941-.294.03.152-.47.221a.618.618 0 01.152.109l-.11.126h.002zm-.712-7.83a3.79 3.79 0 00.138-.533c.017-.1.031-.205.043-.31.01-.107.014-.215.01-.322l.304-.363 1.727 2.338-.44.318-1.17-1.463c-.02.1-.05.2-.085.3a3.66 3.66 0 01-.112.27l-.413-.235h-.002zm4.784-2.863a4.27 4.27 0 00.603-.269c.1-.055.195-.114.287-.177.093-.064.175-.13.25-.204l.517.028-.083 3.239-.695-.03.027-2.299a1.87 1.87 0 01-.33.158 3.678 3.678 0 01-.352.119l-.224-.567v.002zm2.684-.03c.1-.014.206-.033.316-.057.11-.024.22-.053.329-.089a3.31 3.31 0 00.316-.118 1.85 1.85 0 00.283-.15l.5.128-.71 3.16-.676-.166.473-2.25a2.02 2.02 0 01-.354.091 4.378 4.378 0 01-.369.048l-.108-.599v.002zm12.142 5.457c.086.015.179.03.277.041.098.012.196.018.295.02.098 0 .196 0 .292-.008a1.49 1.49 0 00.273-.041l.368.236-1.578 2.463-.526-.342 1.135-1.773c-.1 0-.208-.006-.32-.024a4.623 4.623 0 01-.32-.063l.102-.511.002.002zm1.678 1.336c.092.012.192.02.296.024a3.255 3.255 0 00.623-.031c.102-.016.203-.04.297-.071l.373.24-1.41 2.062-.437-.185.845-1.444c-.1.008-.204.008-.314 0a3.67 3.67 0 01-.319-.041l.044-.552.002-.002zM47 35.985l.123-.066a1.3 1.3 0 00.124-.076 2.81 2.81 0 00.114-.083.837.837 0 00.096-.087l.208-.03.107 1.398-.36.04-.033-1.057a1.21 1.21 0 01-.138.087 2.162 2.162 0 01-.151.073l-.089-.2H47zm3.542-1.685c0-.065-.002-.134-.008-.205a2.71 2.71 0 00-.06-.429 1.759 1.759 0 00-.054-.195l.1-.279 1.574.94-.122.395-1.138-.665c.012.073.02.15.024.233.002.083.002.162 0 .237l-.316-.032zm.322-2.377a2.426 2.426 0 00-.214-.28 2.482 2.482 0 00-.122-.13 1.035 1.035 0 00-.126-.106l-.067-.245 1.425-.144.106.336-1.024.112c.041.044.083.095.122.15.04.056.077.111.11.164l-.214.139.004.004zm-1.063 3.325c.023-.041.045-.087.069-.132a2.204 2.204 0 00.112-.283 1.25 1.25 0 00.031-.13l.167-.164 1.124 1.094-.348.296-.79-.9a1.263 1.263 0 01-.07.164 2.5 2.5 0 01-.09.162l-.205-.103v-.004zM18.537 33.44c.263.05.452.141.583.272a.767.767 0 01.216.485c.02.2-.021.376-.133.51-.12.144-.318.237-.613.269a1.409 1.409 0 01-.45-.016.964.964 0 01-.377-.164.77.77 0 01-.315-.695c.016-.283.14-.482.352-.597.195-.104.444-.122.737-.067v.002zm.014.426a1.752 1.752 0 00-.244-.012.82.82 0 00-.208.03.32.32 0 00-.148.084.23.23 0 00-.057.156.245.245 0 00.052.164.393.393 0 00.149.107.77.77 0 00.218.055c.08.01.165.016.257.014.089 0 .165-.006.234-.018a.562.562 0 00.165-.049.241.241 0 00.096-.085.205.205 0 00.026-.128.251.251 0 00-.045-.13.301.301 0 00-.106-.092.725.725 0 00-.165-.06 1.635 1.635 0 00-.226-.038l.002.002zm.629-3.324c.386.283.6.565.681.86.073.27.037.538-.104.819-.138.274-.326.458-.574.559-.263.106-.593.112-1.021 0a2.499 2.499 0 01-.637-.255 1.656 1.656 0 01-.485-.417 1.248 1.248 0 01-.246-.567 1.288 1.288 0 01.079-.663c.182-.476.52-.745.982-.79.424-.041.878.124 1.326.454h-.002zm-.327.719a3.053 3.053 0 00-.383-.184 1.478 1.478 0 00-.361-.096.569.569 0 00-.301.035.375.375 0 00-.193.21.388.388 0 00-.013.284c.031.087.09.172.174.249.083.077.183.146.303.209a3.155 3.155 0 00.729.28.918.918 0 00.273.028.42.42 0 00.2-.057.368.368 0 00.136-.156.343.343 0 00.04-.206.397.397 0 00-.083-.193 1.055 1.055 0 00-.2-.194 2.858 2.858 0 00-.32-.207v-.002zm4.513-3.412c.114.509.1.908-.033 1.214-.13.298-.356.502-.69.616-.338.117-.65.095-.94-.069-.304-.174-.563-.503-.777-1.011a2.861 2.861 0 01-.214-.766 1.688 1.688 0 01.041-.676 1.16 1.16 0 01.3-.515c.142-.138.323-.237.537-.294.434-.115.815-.022 1.137.264.305.27.517.69.64 1.237zm-.713.219a4.325 4.325 0 00-.147-.437 1.626 1.626 0 00-.185-.341.633.633 0 00-.228-.206.375.375 0 00-.275-.02.348.348 0 00-.218.16.625.625 0 00-.075.295 1.6 1.6 0 00.041.39c.032.141.075.293.132.451.057.158.112.292.173.41.059.117.12.21.187.283.064.071.131.12.204.146.07.026.147.026.232-.002a.355.355 0 00.19-.136.505.505 0 00.079-.237 1.38 1.38 0 00-.014-.332 3.582 3.582 0 00-.094-.424h-.002zm12.265 3.424c-.259.393-.52.64-.79.75a.835.835 0 01-.766-.049.828.828 0 01-.438-.636c-.041-.292.038-.647.25-1.076a2.72 2.72 0 01.363-.567c.136-.158.28-.28.429-.361a.95.95 0 01.46-.127c.154 0 .306.042.451.129.297.175.446.446.45.8.004.341-.136.724-.409 1.139v-.002zm-.524-.304c.075-.124.14-.243.19-.355.053-.115.09-.22.112-.314a.535.535 0 00.004-.255.274.274 0 00-.133-.17.267.267 0 00-.21-.032.578.578 0 00-.218.129 1.53 1.53 0 00-.219.252 3.783 3.783 0 00-.38.697 1.16 1.16 0 00-.083.287.487.487 0 00.011.217c.02.061.061.109.124.144a.256.256 0 00.187.034.44.44 0 00.192-.099 1.29 1.29 0 00.203-.217c.07-.091.143-.198.218-.32l.002.002zm-1.572-1.027c-.253.403-.524.665-.813.784a.86.86 0 01-.835-.079.872.872 0 01-.428-.725c-.018-.312.102-.671.355-1.074a2.43 2.43 0 01.395-.494c.138-.128.277-.223.42-.28a.923.923 0 01.425-.07c.14.013.277.06.407.143.269.17.41.413.428.725.017.312-.1.67-.354 1.07zm-.523-.332a4.09 4.09 0 00.19-.337c.05-.105.084-.202.103-.29a.46.46 0 000-.232.287.287 0 00-.123-.162.265.265 0 00-.197-.043.49.49 0 00-.208.1 1.4 1.4 0 00-.216.218 3.567 3.567 0 00-.415.655 1.253 1.253 0 00-.104.293.457.457 0 000 .23.259.259 0 00.124.16.28.28 0 00.198.044.472.472 0 00.208-.1 1.35 1.35 0 00.216-.222c.075-.093.15-.197.224-.318v.004zm-1.807-.985c-.161.45-.37.764-.625.942a.866.866 0 01-.833.106.866.866 0 01-.573-.614c-.085-.302-.046-.677.115-1.127.081-.223.173-.413.28-.569.105-.156.221-.279.35-.365a.925.925 0 01.398-.16.899.899 0 01.428.049.866.866 0 01.574.614c.084.302.045.676-.114 1.124zm-.584-.211c.048-.135.085-.257.112-.372.026-.114.04-.215.04-.306a.473.473 0 00-.05-.227.274.274 0 00-.157-.13.275.275 0 00-.202 0 .476.476 0 00-.18.144 1.375 1.375 0 00-.166.26 3.827 3.827 0 00-.261.73 1.38 1.38 0 00-.04.31c0 .09.018.165.05.226a.265.265 0 00.155.13c.073.026.14.026.204 0a.446.446 0 00.181-.143c.057-.07.11-.158.163-.263.053-.107.102-.225.15-.36h.002zm7.522 4.079c-.23.423-.488.705-.77.844a.873.873 0 01-.848-.024.88.88 0 01-.477-.703c-.037-.314.059-.683.289-1.106.114-.211.235-.385.367-.523.13-.138.265-.243.405-.31a.91.91 0 01.422-.097.91.91 0 01.419.117.88.88 0 01.477.703c.038.314-.059.68-.287 1.102l.002-.003zm-.549-.3c.069-.126.124-.243.17-.353.042-.109.072-.21.086-.298a.475.475 0 00-.014-.233.273.273 0 00-.136-.154.273.273 0 00-.202-.03.481.481 0 00-.202.114c-.07.06-.138.139-.205.234a3.327 3.327 0 00-.204.333 3.175 3.175 0 00-.17.356c-.044.11-.072.211-.085.302a.497.497 0 00.013.233.275.275 0 00.134.154.275.275 0 00.202.032.45.45 0 00.203-.115 1.5 1.5 0 00.204-.237c.069-.097.137-.21.206-.336v-.002zm6.867 3.075c-.057.371-.181.667-.38.865a.79.79 0 01-.805.205.813.813 0 01-.62-.61c-.077-.296-.017-.644.156-1.013.079-.168.163-.3.256-.4a.904.904 0 01.277-.214.722.722 0 01.293-.067c.098 0 .2.02.304.06.21.08.358.212.448.398.094.194.12.446.07.776zm-.472-.158c.024-.103.041-.194.05-.276a.941.941 0 000-.212.32.32 0 00-.058-.15.255.255 0 00-.123-.09.232.232 0 00-.15-.01.29.29 0 00-.13.084.738.738 0 00-.12.174 2.415 2.415 0 00-.204.567 1.2 1.2 0 00-.029.274.446.446 0 00.053.212.254.254 0 00.157.116.26.26 0 00.195-.014.427.427 0 00.155-.144c.043-.065.082-.146.118-.239.033-.09.063-.187.088-.294l-.002.002zm6.427.514c.104.225.137.424.092.592-.049.178-.177.296-.383.347a.591.591 0 01-.548-.116c-.15-.122-.248-.314-.299-.557a.946.946 0 01-.021-.298.52.52 0 01.064-.215.452.452 0 01.134-.146.504.504 0 01.197-.081.574.574 0 01.422.057c.134.077.245.211.342.414v.002zm-.34.078a1.74 1.74 0 00-.077-.17.565.565 0 00-.082-.118.264.264 0 00-.093-.065.199.199 0 00-.108-.006.15.15 0 00-.088.05.19.19 0 00-.04.094.524.524 0 000 .136 1.506 1.506 0 00.106.37.78.78 0 00.087.15.306.306 0 00.108.09c.04.02.083.022.13.013a.163.163 0 00.104-.068.225.225 0 00.033-.124.64.64 0 00-.021-.164 1.881 1.881 0 00-.06-.19v.003zm1.963-2.756c-.268-.09-.454-.198-.578-.324a.552.552 0 01-.173-.393c0-.142.055-.241.169-.302.118-.063.297-.081.552-.044.138.02.263.05.38.091.121.044.227.099.32.164a.823.823 0 01.223.23.554.554 0 01.095.274c.012.199-.08.327-.271.38-.181.052-.427.022-.72-.076h.003zm-.01-.334c.082.024.16.041.234.053.072.012.139.018.194.016a.243.243 0 00.132-.035c.031-.022.045-.056.043-.1a.18.18 0 00-.055-.12.461.461 0 00-.136-.096 1.102 1.102 0 00-.194-.075 2.775 2.775 0 00-.23-.058 1.72 1.72 0 00-.212-.031.65.65 0 00-.154 0 .19.19 0 00-.094.037.096.096 0 00-.031.081.18.18 0 00.033.099c.024.03.055.06.097.085a.982.982 0 00.157.075c.063.023.135.047.216.069zm-1.611-2.481c.198-.055.357-.07.489-.05.13.019.23.07.308.16.083.092.108.19.07.293-.044.113-.168.226-.386.338-.12.061-.238.107-.352.134-.12.03-.232.04-.332.03a.554.554 0 01-.259-.085.362.362 0 01-.143-.182c-.053-.144-.01-.274.112-.39.11-.105.278-.186.497-.247h-.004zm.123.192a2.252 2.252 0 00-.178.07.791.791 0 00-.142.076.287.287 0 00-.084.085.1.1 0 00-.002.095.122.122 0 00.078.067.35.35 0 00.14.008.831.831 0 00.177-.04 2.055 2.055 0 00.365-.153.463.463 0 00.108-.078.133.133 0 00.045-.07.086.086 0 00-.021-.072.155.155 0 00-.073-.049.286.286 0 00-.104-.01.821.821 0 00-.138.022c-.053.012-.11.03-.172.05h.002zm-1.078 1.402a.68.68 0 01.132-.278.314.314 0 01.196-.109c.082-.012.15.008.196.065.053.064.079.168.071.324a.968.968 0 01-.037.235.575.575 0 01-.093.188.32.32 0 01-.135.108.262.262 0 01-.155.014c-.102-.021-.167-.089-.195-.195a.689.689 0 01.02-.352zm.155 0a1.604 1.604 0 00-.02.119.451.451 0 000 .102c.002.03.01.056.022.075.012.02.032.03.055.034a.078.078 0 00.065-.02.208.208 0 00.051-.07.818.818 0 00.057-.239.917.917 0 00.008-.12.347.347 0 00-.01-.084.109.109 0 00-.028-.05c-.011-.01-.027-.013-.049-.011a.097.097 0 00-.053.021.158.158 0 00-.041.052.47.47 0 00-.033.08c-.01.032-.02.07-.028.111h.004zM46.17 36.11c.03.3-.017.55-.155.732-.151.2-.381.29-.684.257-.308-.034-.53-.18-.656-.42-.116-.22-.126-.493-.041-.791.037-.134.086-.241.145-.328a.606.606 0 01.428-.274.826.826 0 01.27.004c.196.033.35.11.467.237.124.134.2.323.226.584v-.002zm-.454-.068c0-.081-.004-.154-.011-.217a.56.56 0 00-.044-.158.29.29 0 00-.078-.107.25.25 0 00-.126-.051.229.229 0 00-.13.012.228.228 0 00-.096.079.518.518 0 00-.07.144 1.618 1.618 0 00-.071.454c0 .079.007.152.025.215a.37.37 0 00.087.16.254.254 0 00.16.075.238.238 0 00.17-.033.317.317 0 00.108-.133.788.788 0 00.057-.201c.011-.073.017-.154.017-.239h.002z" opacity=".47" fill="#260E61"/><path d="M35.443 17.795l.048.027c.011-.04-.008-.045-.048-.027z" fill="#260E61"/><path d="M35.21 18.534c-.49.205-.59 3.254-1.437 2.78-.91-.514-3.894-.498-4.607-1.27-.018-.02-.051-.03-.077-.043-.257 1.789-.992 1.7-2.023 1.503-1.23-.235-2.275-.844-3.132-1.752-.315-.332-.419-.762-.177-1.197.118-.213.76-.616.969-.7.577-.236 1.173-.301 1.752 0 .157.082.144.011.27-.1.43-.367 7.398-.66 8.015-.347.102.051.511.292.68.387-.179.08-.308.638-.234.738z" fill="#260E61"/><path d="M35.109 18.735c.006 1.05.098 1.145-.792 1.894-1.108-.54-4.45-.435-5.383-1.19-.299.323-.47.37-.542.82-.065.397-.069.421-.458.316-1.35-.367-2.601-.947-3.713-1.81-.05-.09.027-.105.076-.137.717-.454 1.484-.567 2.287-.298.222.073 8.03-.505 8.74-.168.129.061-.166.43-.215.569v.004z" fill="#fff"/><path d="M40.009 20.098l.018.016c.01-.026.002-.035-.018-.016z" fill="#260E61"/><path d="M44.424 29.567c-.29.383-.727.416-1.171.205A7.498 7.498 0 0140.2 27.14c-.678-1.01-.521-1.829.206-2.49-.028-.024-.05-.056-.077-.07-.943-.434-1.735-1.106-2.566-1.8.488-.417.678-.787.912-1.444.69-.133 1.534-1.42 1.59-1.584.231.211 3.43 3.493 4.011 4.082.442.448.362.997.124 1.507-.151.33-.37.602-.607.849-.116.122-.116.181.035.322.548.51.759 1.153.804 1.834.018.241-.065 1.035-.208 1.22z" fill="#260E61"/><path d="M44.072 29.027c-.024.07-.104.101-.165.06-1.254-.845-2.334-1.92-3.287-3.178-.678-.683.945-.746 1.041-1.437-.91-.58-2.055-1.183-2.94-1.811.166-.834.57-1.689.972-2.336.715.697 3.298 3.179 3.953 3.815.673.608-.128 1.3-.382 1.894-.104.181-.108.32.067.529.55.69.988 1.72.74 2.466v-.002zm8.169-16.985c-.336.28-.676.476-1.008.684-.624.393-1.212.853-1.868 1.178-1.142.565-2.209 1.262-3.35 1.823l.358-2.401c1.351-.484 2.607-1.175 3.797-1.999.23-.158.46-.314.678-.483.15-.117.24-.111.289.083.078.31.475.963 1.1 1.115h.004zm3.592-2.512c-.266.366-.877.498-1.323.253.56-.182 1.118-.274 1.338-.894.19-.538.2-1.063-.011-1.683.326.23.377.496.4.745.05.566-.06 1.11-.404 1.58z" fill="#fff"/><path d="M55.253 8.975a.736.736 0 01-.057.034.419.419 0 00.03-.06c.092-.66-.598-1.168-1.329-1.186-.233-.006-.304-.077-.286-.29.007-.097-.004-.192-.004-.29-.006-.544.025-.575.557-.506.454.057 1.154.233 1.297.732.154.545.224 1.096-.208 1.568v-.002z" fill="#fff"/><path d="M52.886 10.008c-.291.362-.362.593-.272.701.384-.327.922-.513 1.107-.632a.757.757 0 00.644.419c.134 0 .07.118.016.188-.128.158-.305.237-.49.286-.428.118-1.805.43-2.251-.336-.19-.328-.283-.68-.189-1.076.15-.628.39-1.24.397-1.898.012-1.153-.279-2.227-.811-3.244-.094-.178-.305-.391-.165-.575.14-.182.422-.095.644-.083.283.018.491.182.666.4.468.582.578 1.3.747 1.992.127.523.116 1.064.184 1.597.016.123.02.265-.13.286-.211.034-1.292.834-1.286 1.505.894-1.42 2.045-1.455 2.62-1.226.372.146.402.29.13.577-.088.092-1.224.752-1.558 1.123v-.004h-.004z" fill="#fff"/><path d="M34.854 9.078a40.144 40.144 0 01-1.934-1.823c-.07-.07-.117-.138-.106-.25.053-.555-.163-1.01-.544-1.389a2.159 2.159 0 01-.558-.888c-.232-.759-.304-1.535-.285-2.323.008-.322.036-.645.016-.965-.022-.34-.214-.581-.544-.684-.692-.215-1.621.348-1.71 1.065a8.88 8.88 0 00-.039 1.295c.006.32.19.705.067.94-.13.251-.538.348-.811.535-.362.247-.751.48-.947.891-.09.19-.199.338-.348.478-.385.357-.38.778-.016 1.147.224.227.438.462.662.688.332.333.7.574 1.2.416.099-.03.158 0 .217.08.436.584 1.041.79 1.74.783.083 0 .134.018.181.091.428.638.959 1.177 1.51 1.698l.066.066c.187-.204.409-.38.65-.51l-.025-.024a.98.98 0 00-.047-.04 2.259 2.259 0 01-.103-.088 1.28 1.28 0 01-.08-.063c-.46-.364-.916-.729-1.38-1.086-.159-.123-.159-.194.034-.277.326-.138.672-.511.882-1.019a22.371 22.371 0 001.833 1.706l.067.058c.16-.145.328-.267.513-.374a9.193 9.193 0 01-.16-.138l-.001.004zm-6.98-3.104c.31-.59.84-.964 1.414-1.252.228-.115.218.197.285.324.094.175-.077.14-.171.162-.454.098-.926.156-1.215.598-.28.43-.245.66.167.98.048.037.118.053.136.155-.23.044-.424-.013-.554-.201a.724.724 0 01-.063-.766zm.813 1.59a.767.767 0 01-.496-.082c-.383-.23-.66-.566-.862-.963-.05-.095-.073-.204.033-.316.061.156.099.312.177.44.263.429.591.76 1.151.713.075-.006.2-.028.199.089 0 .097-.116.105-.203.116v.002zm1.424.618c-.623-.107-.633-.12-.428-.723.314.2.552.478.852.727-.177.053-.298.015-.424-.006v.002zm1.363-.261c-.155.12-.304.318-.552.207-.454-.482-.846-1.037-1.48-1.323-.101-.045-.196-.108-.294-.162-.116-.085-.255-.095-.387-.134-.14-.044-.316-.061-.336-.247-.02-.186.118-.29.263-.37.67-.374 1.325-.315 1.971.07.267.158.477.385.725.565a1.287 1.287 0 00-.688-.899c-.5-.255-.71-.6-.78-1.125-.108-.834-.21-1.665-.076-2.5.047-.307.118-.615.485-.73.348-.108.558 0 .625.368.047.257.004.512-.016.768-.084 1.082-.012 2.145.428 3.154.083.19.195.357.325.513.495.607.414 1.361-.21 1.847l-.003-.002z" fill="#260E61"/><path d="M30.535 8.186c-.177.053-.298.015-.424-.006-.623-.107-.633-.12-.428-.723.314.2.552.478.852.727v.002zm-1.646-.739c0 .097-.116.105-.203.116a.763.763 0 01-.495-.08c-.383-.232-.66-.567-.862-.964-.05-.095-.073-.204.033-.316.061.156.099.312.177.44.263.429.591.76 1.151.713.075-.006.2-.028.199.089v.002z" fill="#fff"/><path d="M29.404 5.208c-.454.098-.926.156-1.215.598-.28.43-.245.66.167.98.047.037.118.053.136.155-.23.044-.424-.013-.554-.201a.724.724 0 01-.063-.766c.31-.59.84-.964 1.415-1.252.227-.115.218.197.285.324.094.175-.077.14-.171.162z" fill="#fff"/><path d="M31.474 7.92c-.155.121-.304.319-.552.208-.454-.482-.846-1.037-1.48-1.323-.101-.045-.196-.108-.294-.162-.116-.085-.255-.095-.387-.134-.14-.044-.316-.061-.336-.247-.02-.186.118-.29.263-.37.67-.374 1.325-.315 1.971.07.267.158.477.385.725.565a1.287 1.287 0 00-.688-.899c-.5-.255-.71-.6-.78-1.125-.108-.834-.21-1.665-.076-2.5.047-.307.118-.615.485-.73.348-.108.558 0 .625.368.047.257.004.512-.016.768-.084 1.082-.012 2.145.428 3.154.083.19.195.357.325.513.495.607.414 1.361-.21 1.847l-.003-.002zm2.957 1.612l-1.14.867a.928.928 0 00-.046-.04c-.036-.029-.07-.059-.103-.088a1.274 1.274 0 01-.08-.063c-.46-.364-.916-.729-1.38-1.086-.159-.123-.159-.194.034-.277.326-.138.672-.511.882-1.019a22.334 22.334 0 001.763 1.647l.07.06z" fill="#fff"/><path d="M56.499 7.56c-.152-.33-.352-.619-.73-.72a.338.338 0 01-.176-.13c-.175-.22-.417-.324-.676-.406-.395-.127-.8-.135-1.204-.11-.19.01-.246-.037-.28-.232-.117-.711-.282-1.412-.683-2.026-.407-.622-1.104-.89-1.78-.711-.607.162-.973.667-.57 1.325.305.492.564 1.005.706 1.574.19.784.28 1.584-.008 2.348-.215.57-.366 1.126-.205 1.72.047.182.006.259-.133.361-1.285.95-2.62 1.813-4.118 2.386-.099.037-.195.075-.293.11-.025.111-.06.22-.104.324l.128-.047c1.351-.484 2.607-1.175 3.797-1.999.23-.158.46-.314.678-.483.15-.117.24-.111.289.083.079.31.475.963 1.1 1.115-.336.28-.676.476-1.008.684-.624.393-1.212.853-1.868 1.178-1.142.565-2.208 1.262-3.35 1.823l-.106.054c.22.278.38.608.466.963.31-.19.62-.379.927-.57 1.47-.919 2.947-1.82 4.405-2.755.57-.366 1.177-.717 1.432-1.414.03-.083.1-.063.16-.07.822-.07 1.408-.503 1.813-1.208.076-.13.159-.255.308-.298 1.226-.373 1.501-1.941 1.077-2.87h.006zm-2.334-.885c.453.057 1.153.233 1.296.732.154.545.224 1.096-.208 1.568a.736.736 0 01-.057.034.419.419 0 00.03-.06c.092-.66-.598-1.168-1.329-1.186-.233-.006-.304-.077-.286-.29.007-.097-.004-.192-.004-.29-.006-.544.025-.575.558-.506v-.002zm-1.55 4.034c.383-.327.92-.513 1.105-.632a.76.76 0 00.645.419c.134 0 .07.118.016.188-.128.158-.305.237-.49.286-.428.118-1.805.43-2.251-.336-.19-.328-.283-.68-.189-1.076.15-.628.39-1.24.397-1.898.012-1.153-.279-2.227-.811-3.244-.094-.178-.305-.391-.165-.575.14-.182.422-.095.644-.083.283.018.491.182.666.4.468.581.578 1.3.747 1.991.127.524.116 1.065.184 1.598.016.123.02.265-.13.286-.211.034-1.292.834-1.286 1.505.894-1.42 2.045-1.455 2.62-1.226.372.146.402.29.13.577-.088.092-1.224.752-1.558 1.123v-.004c-.292.362-.363.593-.273.701h-.002zm3.218-1.179c-.266.366-.877.498-1.323.253.56-.182 1.118-.274 1.338-.894.19-.538.2-1.063-.011-1.683.326.23.377.496.4.745.05.566-.06 1.11-.404 1.58z" fill="#260E61"/><path d="M46.396.393c0-.405-.51-.527-.746-.22a466.69 466.69 0 01-12.765 10.475c-1.297 1.001-5.38 4.117-5.38 4.117-.325.243-.268.755.209.91.051.019 5.314 1.612 7.436 2.383a244.383 244.383 0 00-1.98 4.397.855.855 0 00.49 1.148c.952.345 1.48.66 3.174 1.435a.85.85 0 001.116-.393c.672-1.338 1.615-3.218 2.084-4.157l5.083 2.949c.603.383 1.438-.089 1.434-.8-.023-7.307-.153-16.685-.155-22.246v.002zM44.821 21.13c-1.877-1.157-3.951-2.545-5.694-3.517-.582 1.347-1.649 4.248-2.319 5.846a.28.28 0 01-.367.152l-2.216-.909a.284.284 0 01-.155-.373c.534-1.282 2.21-5.43 2.21-5.43s-5.782-1.523-7.882-2.102c.308-.247 12.065-9.58 17.19-13.594-.176 5.274-.56 14.26-.767 19.927z" fill="#260E61"/><path d="M45.587 1.203c-.177 5.274-.56 14.26-.769 19.927-1.876-1.157-3.95-2.545-5.693-3.517-.582 1.347-1.648 4.248-2.319 5.846a.28.28 0 01-.367.152l-2.216-.909a.284.284 0 01-.155-.373c.534-1.282 2.21-5.43 2.21-5.43s-5.782-1.523-7.882-2.102c.308-.247 12.065-9.58 17.19-13.594z" fill="#fff"/><path d="M36.247 12.558s-.928 2.743 1.542 3.404c1.97.528 2.886-.156 3.576-.703.506-.403.835-1.147.835-1.147s-2.032.802-3.91.12c-1.97-.732-2.043-1.674-2.043-1.674zm.096.857s.104.699 1.878 1.258c1.711.539 2.778.158 2.778.158s-.992 1.36-3.224.685c-1.627-.492-1.432-2.103-1.432-2.103v.002zm6.085-3.648c.139-.183.249-.389.461-.513a.918.918 0 011.093.103c.312.276.385.643.19 1.042-.12.25-.257.49-.385.735-.043.085-.08.174-.132.255-.367.596-.654 1.246-1.102 1.79-.232.283-.534.378-.888.255-.35-.12-.56-.418-.585-.797-.018-.261.094-.478.206-.695.38-.727.76-1.452 1.142-2.177v.002zm.369.014c-.265.498-.538.99-.794 1.493a9.43 9.43 0 00-.473 1.047c-.097.266.003.51.26.651.23.127.413.032.551-.163a18.064 18.064 0 001.497-2.522c.216-.322.189-.524-.098-.745-.375-.288-.684-.211-.943.24zm-5.525-1.633c.108-.16.193-.34.354-.45.267-.186.581-.166.81.067.225.23.272.545.121.893-.094.215-.2.426-.3.64-.034.074-.063.151-.103.22-.285.52-.51 1.083-.854 1.56-.177.247-.405.336-.666.238-.258-.097-.409-.35-.42-.674-.009-.223.078-.413.166-.602.295-.632.593-1.262.89-1.892h.002zm.275.004c-.206.432-.418.861-.619 1.297a9.41 9.41 0 00-.373.909c-.077.23-.008.438.183.555.169.104.306.018.412-.152.439-.697.824-1.43 1.162-2.196.166-.28.15-.453-.06-.638-.273-.241-.502-.168-.705.223v.002z" fill="#260E61"/><path d="M51.192 37.104c-4.823 3.28-13.727.032-18.474-2.43l.006.005c-1.643-.876-7.03-4.895-11.647-3.62 5.358-4.638 14.229 3.524 19.875 5.319 2.813 1.027 7.346 1.663 9.84.041.115-.07.225-.15.333-.235 1.038-.825 1.625-2.127 1.41-4.08-.011-.1-.025-.205-.038-.312.005.01.01.018.013.028.863 1.793.193 4.034-1.316 5.284h-.002z" fill="url(#paint2_linear_82_2669)"/><path d="M52.522 30.781c-1.002-1.485-4.193-2.123-5.232.794-1.593-.867-5.224-2.733-6.633-3.434l.012.004c-8.782-4.598-17.763-9.013-26.45-13.814-1.456-.804-1.346 1.408.166 3.738 1.667 2.566 4.576 5.032 7.844 7.203-1.604.122-3.152.623-4.54 1.688-.427.365-1.2 1.09-.58 1.61.139.12.015.163-.038.215-1.615 1.48-2.165 3.953-1.17 5.922 1.013 2.095 3.033 4.001 5.453 4.038.566-.023.814-.317.969-.574 8.354 2.753 17.774 4.137 26.197.94 5.079-1.7 5.5-6.114 4.002-8.33zm-38.39-15.798c10.161 5.36 22.997 11.886 33.117 17.384.075.687.39 1.663 1.489 1.8.318.04.868-.25.82-.607.19.414.04.732-.407 1.074-.822.626-3.494.476-6.751-.66-10.05-3.499-13.649-6.189-16.65-7.895-5.76-3.157-10.57-7.552-11.618-11.096zm8.055 22.536s-.002 0-.002.002c-.572-.18-1.106-.41-1.575-.756-.44-.788-.688-2.013-.602-2.79 5.413 4.356 12.15 5.633 19.41 6.317-5.822.35-11.714-.915-17.23-2.773zm26.433.579c-7.749.95-19.66-5.743-19.78-5.644 5.957 3.732 12.896 6.88 20.018 5.84-8.053 2.987-17.877.027-20.89-1.144-2.686-1.04-5.296-2.319-7.675-3.95.116-.646.346-1.198.768-1.55 5.077 4.038 10.339 5.085 12.708 5.547-.267-.089-9.116-2.885-11.931-6.11.306-.276.858-.276 1.086-.278 1.723-.024 3.087.705 4.705 1.074-1.62-.865-3.713-2.445-5.746-1.41-3.545 1.803-2.682 6.724-.505 7.623-1.354.586-4.43-2.137-4.15-3.991-.733 2.575-2.57-3.045.533-5.156.473-.397 1.014-.696 1.568-.992-.55 0-1.034.352-1.608.302-.907-.017.834-1.256 1.067-1.366 1.387-.727 2.837-1.04 4.301-1.063 4.6 2.935 9.712 5.293 12.892 6.636 1.06.416 3.352 1.479 6.574 2.39 3.835 1.129 6.116.8 7.097 0 .81-.662.693-2.148-.376-2.167-.351-.006-.695.253-.656.63.067.373.54.276.637-.06-.393 1.316-1.851-.722-.336-1.939-.354.006-.62.127-.88.29.546-2.099 3.685-1.88 4.424.084 1.047 2.78-.937 6.16-3.845 6.404z" fill="#260E61"/><path d="M49.15 34.634c-.82.626-3.493.476-6.75-.66-10.05-3.499-13.649-6.189-16.65-7.895-5.76-3.157-10.57-7.552-11.618-11.096 10.161 5.36 22.997 11.886 33.117 17.384.075.687.39 1.663 1.49 1.8.317.04.867-.25.818-.607.19.414.042.732-.406 1.074z" fill="url(#paint3_linear_82_2669)"/><path opacity=".71" d="M17.226 18.579c3.166 2.62 6.647 4.848 10.213 6.872a87.893 87.893 0 0016.94 7.277l1.962.607c-1.187-.348-2.794-.76-3.945-1.144a79.174 79.174 0 01-15.044-6.584c-3.567-2.036-7.023-4.323-10.126-7.028z" fill="#fff"/></g><defs><linearGradient id="paint0_linear_82_2669" x1="20.749" y1="18.768" x2="54.257" y2="18.768" gradientUnits="userSpaceOnUse"><stop stop-color="#16CCE3"/><stop offset="1" stop-color="#4B30FD"/></linearGradient><linearGradient id="paint1_linear_82_2669" x1="19.329" y1="34.707" x2="52.966" y2="34.707" gradientUnits="userSpaceOnUse"><stop stop-color="#16CCE3"/><stop offset="1" stop-color="#4B30FD"/></linearGradient><linearGradient id="paint2_linear_82_2669" x1="21.079" y1="34.071" x2="52.889" y2="34.071" gradientUnits="userSpaceOnUse"><stop stop-color="#16CCE3"/><stop offset="1" stop-color="#4B30FD"/></linearGradient><linearGradient id="paint3_linear_82_2669" x1="14.132" y1="24.991" x2="49.638" y2="24.991" gradientUnits="userSpaceOnUse"><stop stop-color="#F09"/><stop offset="1" stop-color="#FF0067"/></linearGradient><clipPath id="clip0_82_2669"><path fill="#fff" d="M0 0h72v68H0z"/></clipPath></defs></svg>